# xmcd CD database file
#
# Track frame offsets:
#	150
#	17380
#	36784
#	59815
#	73291
#	87855
#	106217
#	121015
#	136726
#	151021
#	167987
#
# Disc length: 2260 seconds
#
# Revision: 0
# Processed by: cddbd v1.5.1PL0 Copyright (c) Steve Scherf et al.
# Submitted via: CDex 1.40Release
#
DISCID=8808d20b
DTITLE=Way Out West - Europe 2005
DYEAR=2005
DGENRE=Country
TTITLE0=Heartbrake
TTITLE1=Arizona Moon
TTITLE2=A Night Ride
TTITLE3=Granddaddy's Cabin
TTITLE4=Cellular Cowboy
TTITLE5=Homes, Homes On The Range
TTITLE6=The Wild, Wild West
TTITLE7=Steerwrestler's Thinkin'
TTITLE8=Waltz for Arizona
TTITLE9=The Riders of Yesterday
TTITLE10=Tumbling Tumbleweeds (Reprise)
EXTD=YEAR: 2005 ID3G: 2
EXTT0=
EXTT1=
EXTT2=
EXTT3=
EXTT4=
EXTT5=
EXTT6=
EXTT7=
EXTT8=
EXTT9=
EXTT10=
PLAYORDER=
